<?xml version="1.0" standalone="no"?>
 <!DOCTYPE svg PUBLIC "-//W3C//DTD SVG 1.1//EN" 
 "http://www.w3.org/Graphics/SVG/1.1/DTD/svg11.dtd"> 
<svg xmlns="http://www.w3.org/2000/svg" version="1.1" 
    width="29.7002cm" height="21.0007cm" viewBox="0 0 116930 82680 ">
<title>SVG Picture created as mozzi_theremin_circuit-F.Cu.svg date 2019/09/26 12:33:11 </title>
  <desc>Picture generated by PCBNEW </desc>
<g style="fill:#000000; fill-opacity:1;stroke:#000000; stroke-opacity:1;
stroke-linecap:round; stroke-linejoin:round; "
 transform="translate(0 0) scale(1 1)">
</g>
<g style="fill:#000000; fill-opacity:0.0; 
stroke:#000000; stroke-width:-0.000393701; stroke-opacity:1; 
stroke-linecap:round; stroke-linejoin:round;">
</g>
<g style="fill:#000000; fill-opacity:0.0; 
stroke:#000000; stroke-width:0; stroke-opacity:1; 
stroke-linecap:round; stroke-linejoin:round;">
</g>
<g style="fill:#000000; fill-opacity:1.0; 
stroke:#000000; stroke-width:0; stroke-opacity:1; 
stroke-linecap:round; stroke-linejoin:round;">
<polyline style="fill-rule:evenodd;"
points="39457,35560
39457,34931
40087,34931
40087,35560
39457,35560
" /> 
</g>
<g style="fill:#000000; fill-opacity:1.0; 
stroke:#000000; stroke-width:629.921; stroke-opacity:1; 
stroke-linecap:round; stroke-linejoin:round;">
</g>
<g style="fill:#000000; fill-opacity:0.0; 
stroke:#000000; stroke-width:629.921; stroke-opacity:1; 
stroke-linecap:round; stroke-linejoin:round;">
<path d="M45772 48246
L45772 48246
" />
<path d="M39772 36246
L39772 36246
" />
<path d="M45772 47246
L45772 47246
" />
<path d="M39772 37246
L39772 37246
" />
<path d="M45772 46246
L45772 46246
" />
<path d="M39772 38246
L39772 38246
" />
<path d="M45772 45246
L45772 45246
" />
<path d="M39772 39246
L39772 39246
" />
<path d="M45772 44246
L45772 44246
" />
<path d="M39772 40246
L39772 40246
" />
<path d="M45772 43246
L45772 43246
" />
<path d="M39772 41246
L39772 41246
" />
<path d="M45772 42246
L45772 42246
" />
<path d="M39772 42246
L39772 42246
" />
<path d="M45772 41246
L45772 41246
" />
<path d="M39772 43246
L39772 43246
" />
<path d="M45772 40246
L45772 40246
" />
<path d="M39772 44246
L39772 44246
" />
<path d="M45772 39246
L45772 39246
" />
<path d="M39772 45246
L39772 45246
" />
<path d="M45772 38246
L45772 38246
" />
<path d="M39772 46246
L39772 46246
" />
<path d="M45772 37246
L45772 37246
" />
<path d="M39772 47246
L39772 47246
" />
<path d="M45772 36246
L45772 36246
" />
<path d="M39772 48246
L39772 48246
" />
<path d="M45772 35246
L45772 35246
" />
<path d="M39772 49246
L39772 49246
" />
<path d="M45772 49246
L45772 49246
" />
</g>
<g style="fill:#000000; fill-opacity:0.0; 
stroke:#000000; stroke-width:0; stroke-opacity:1; 
stroke-linecap:round; stroke-linejoin:round;">
</g>
<g style="fill:#000000; fill-opacity:1.0; 
stroke:#000000; stroke-width:0; stroke-opacity:1; 
stroke-linecap:round; stroke-linejoin:round;">
<polyline style="fill-rule:evenodd;"
points="43157,29031
43787,29031
43787,29660
43157,29660
43157,29031
" /> 
</g>
<g style="fill:#000000; fill-opacity:1.0; 
stroke:#000000; stroke-width:629.921; stroke-opacity:1; 
stroke-linecap:round; stroke-linejoin:round;">
</g>
<g style="fill:#000000; fill-opacity:0.0; 
stroke:#000000; stroke-width:629.921; stroke-opacity:1; 
stroke-linecap:round; stroke-linejoin:round;">
<path d="M43472 32346
L43472 32346
" />
</g>
<g style="fill:#000000; fill-opacity:0.0; 
stroke:#000000; stroke-width:0; stroke-opacity:1; 
stroke-linecap:round; stroke-linejoin:round;">
</g>
<g style="fill:#000000; fill-opacity:1.0; 
stroke:#000000; stroke-width:0; stroke-opacity:1; 
stroke-linecap:round; stroke-linejoin:round;">
<polyline style="fill-rule:evenodd;"
points="38117,32200
38117,31491
38826,31491
38826,32200
38117,32200
" /> 
<circle cx="39472.1" cy="31846" r="354.331" /> 
</g>
<g style="fill:#000000; fill-opacity:1.0; 
stroke:#000000; stroke-width:39.3701; stroke-opacity:1; 
stroke-linecap:round; stroke-linejoin:round;">
</g>
<g style="fill:#000000; fill-opacity:1.0; 
stroke:#000000; stroke-width:0; stroke-opacity:1; 
stroke-linecap:round; stroke-linejoin:round;">
<circle cx="42228.3" cy="52318.9" r="551.181" /> 
</g>
<g style="fill:#000000; fill-opacity:1.0; 
stroke:#000000; stroke-width:39.3701; stroke-opacity:1; 
stroke-linecap:round; stroke-linejoin:round;">
</g>
<g style="fill:#000000; fill-opacity:1.0; 
stroke:#000000; stroke-width:1102.36; stroke-opacity:1; 
stroke-linecap:round; stroke-linejoin:round;">
</g>
<g style="fill:#000000; fill-opacity:0.0; 
stroke:#000000; stroke-width:1102.36; stroke-opacity:1; 
stroke-linecap:round; stroke-linejoin:round;">
<path d="M44228 52318
L44228 52318
" />
</g>
<g style="fill:#000000; fill-opacity:1.0; 
stroke:#000000; stroke-width:0; stroke-opacity:1; 
stroke-linecap:round; stroke-linejoin:round;">
<circle cx="35872.1" cy="29146" r="393.701" /> 
</g>
<g style="fill:#000000; fill-opacity:1.0; 
stroke:#000000; stroke-width:39.3701; stroke-opacity:1; 
stroke-linecap:round; stroke-linejoin:round;">
</g>
<g style="fill:#000000; fill-opacity:1.0; 
stroke:#000000; stroke-width:0; stroke-opacity:1; 
stroke-linecap:round; stroke-linejoin:round;">
<circle cx="39415.4" cy="29146" r="393.701" /> 
</g>
<g style="fill:#000000; fill-opacity:1.0; 
stroke:#000000; stroke-width:39.3701; stroke-opacity:1; 
stroke-linecap:round; stroke-linejoin:round;">
</g>
<g style="fill:#000000; fill-opacity:1.0; 
stroke:#000000; stroke-width:0; stroke-opacity:1; 
stroke-linecap:round; stroke-linejoin:round;">
<circle cx="41372.1" cy="32246" r="393.701" /> 
</g>
<g style="fill:#000000; fill-opacity:1.0; 
stroke:#000000; stroke-width:39.3701; stroke-opacity:1; 
stroke-linecap:round; stroke-linejoin:round;">
</g>
<g style="fill:#000000; fill-opacity:1.0; 
stroke:#000000; stroke-width:0; stroke-opacity:1; 
stroke-linecap:round; stroke-linejoin:round;">
<circle cx="41372.1" cy="28702.7" r="393.701" /> 
</g>
<g style="fill:#000000; fill-opacity:1.0; 
stroke:#000000; stroke-width:39.3701; stroke-opacity:1; 
stroke-linecap:round; stroke-linejoin:round;">
</g>
<g style="fill:#000000; fill-opacity:1.0; 
stroke:#000000; stroke-width:0; stroke-opacity:1; 
stroke-linecap:round; stroke-linejoin:round;">
<circle cx="37580" cy="25646" r="314.961" /> 
</g>
<g style="fill:#000000; fill-opacity:1.0; 
stroke:#000000; stroke-width:39.3701; stroke-opacity:1; 
stroke-linecap:round; stroke-linejoin:round;">
</g>
<g style="fill:#000000; fill-opacity:1.0; 
stroke:#000000; stroke-width:0; stroke-opacity:1; 
stroke-linecap:round; stroke-linejoin:round;">
<circle cx="40572.1" cy="25646" r="314.961" /> 
</g>
<g style="fill:#000000; fill-opacity:1.0; 
stroke:#000000; stroke-width:39.3701; stroke-opacity:1; 
stroke-linecap:round; stroke-linejoin:round;">
</g>
<g style="fill:#000000; fill-opacity:1.0; 
stroke:#000000; stroke-width:0; stroke-opacity:1; 
stroke-linecap:round; stroke-linejoin:round;">
<circle cx="41472.1" cy="27246" r="314.961" /> 
</g>
<g style="fill:#000000; fill-opacity:1.0; 
stroke:#000000; stroke-width:39.3701; stroke-opacity:1; 
stroke-linecap:round; stroke-linejoin:round;">
</g>
<g style="fill:#000000; fill-opacity:1.0; 
stroke:#000000; stroke-width:629.921; stroke-opacity:1; 
stroke-linecap:round; stroke-linejoin:round;">
</g>
<g style="fill:#000000; fill-opacity:0.0; 
stroke:#000000; stroke-width:629.921; stroke-opacity:1; 
stroke-linecap:round; stroke-linejoin:round;">
<path d="M42472 27246
L42472 27246
" />
</g>
<g style="fill:#000000; fill-opacity:1.0; 
stroke:#000000; stroke-width:0; stroke-opacity:1; 
stroke-linecap:round; stroke-linejoin:round;">
<circle cx="35872.1" cy="25546" r="301.181" /> 
</g>
<g style="fill:#000000; fill-opacity:1.0; 
stroke:#000000; stroke-width:39.3701; stroke-opacity:1; 
stroke-linecap:round; stroke-linejoin:round;">
</g>
<g style="fill:#000000; fill-opacity:1.0; 
stroke:#000000; stroke-width:0; stroke-opacity:1; 
stroke-linecap:round; stroke-linejoin:round;">
<circle cx="35872.1" cy="26546" r="301.181" /> 
</g>
<g style="fill:#000000; fill-opacity:1.0; 
stroke:#000000; stroke-width:39.3701; stroke-opacity:1; 
stroke-linecap:round; stroke-linejoin:round;">
</g>
<g style="fill:#000000; fill-opacity:1.0; 
stroke:#000000; stroke-width:0; stroke-opacity:1; 
stroke-linecap:round; stroke-linejoin:round;">
<circle cx="35872.1" cy="27546" r="301.181" /> 
</g>
<g style="fill:#000000; fill-opacity:1.0; 
stroke:#000000; stroke-width:39.3701; stroke-opacity:1; 
stroke-linecap:round; stroke-linejoin:round;">
</g>
<g style="fill:#000000; fill-opacity:1.0; 
stroke:#000000; stroke-width:0; stroke-opacity:1; 
stroke-linecap:round; stroke-linejoin:round;">
<circle cx="35872.1" cy="24546" r="301.181" /> 
</g>
<g style="fill:#000000; fill-opacity:1.0; 
stroke:#000000; stroke-width:39.3701; stroke-opacity:1; 
stroke-linecap:round; stroke-linejoin:round;">
</g>
<g style="fill:#000000; fill-opacity:1.0; 
stroke:#000000; stroke-width:0; stroke-opacity:1; 
stroke-linecap:round; stroke-linejoin:round;">
<circle cx="46653.5" cy="22244.1" r="1122.05" /> 
</g>
<g style="fill:#000000; fill-opacity:1.0; 
stroke:#000000; stroke-width:39.3701; stroke-opacity:1; 
stroke-linecap:round; stroke-linejoin:round;">
</g>
<g style="fill:#000000; fill-opacity:1.0; 
stroke:#000000; stroke-width:196.85; stroke-opacity:1; 
stroke-linecap:round; stroke-linejoin:round;">
</g>
<g style="fill:#000000; fill-opacity:0.0; 
stroke:#000000; stroke-width:196.85; stroke-opacity:1; 
stroke-linecap:round; stroke-linejoin:round;">
<path d="M40090 46566
L41307 46566
" />
<path d="M40572 27902
L41372 28702
" />
<path d="M46572 45446
L45772 46246
" />
<path d="M46572 34846
L46572 45446
" />
<path d="M44972 33246
L46572 34846
" />
<path d="M44972 33246
L44972 31246
" />
<path d="M44972 31246
L44172 30446
" />
<path d="M44172 30446
L44172 27446
" />
<path d="M43072 26346
L40572 26346
" />
<path d="M40572 25646
L40572 26346
" />
<path d="M44172 27446
L43072 26346
" />
<path d="M40572 26346
L40572 27902
" />
<path d="M43372 32246
L43472 32346
" />
<path d="M41372 32246
L43372 32246
" />
<path d="M40972 31846
L41372 32246
" />
<path d="M39472 31846
L40972 31846
" />
<path d="M40217 38246
L40672 37791
" />
<path d="M39772 38246
L40217 38246
" />
<path d="M39472 33046
L40772 34346
" />
<path d="M40772 34346
L40772 36446
" />
<path d="M39472 31846
L39472 33046
" />
<path d="M40772 36446
L44372 40046
" />
<path d="M40672 36546
L40772 36446
" />
<path d="M40672 37791
L40672 36546
" />
<path d="M43677 48419
L44372 47724
" />
<path d="M43677 51767
L43677 48419
" />
<path d="M44228 52318
L43677 51767
" />
<path d="M44372 40046
L44372 47724
" />
<path d="M46887 45731
L46887 34715
" />
<path d="M35623 24028
L35354 24297
" />
<path d="M46572 46046
L46887 45731
" />
<path d="M44487 27315
L42417 25246
" />
<path d="M45121 50846
L46572 50846
" />
<path d="M36954 24028
L35623 24028
" />
<path d="M42417 25246
L41172 25246
" />
<path d="M46572 50846
L46572 46046
" />
<path d="M44372 50096
L45121 50846
" />
<path d="M46887 34715
L45287 33115
" />
<path d="M35354 27028
L35872 27546
" />
<path d="M41172 25246
L41172 24746
" />
<path d="M45287 33115
L45287 31115
" />
<path d="M45287 31115
L44487 30315
" />
<path d="M35354 24297
L35354 27028
" />
<path d="M44487 30315
L44487 27315
" />
<path d="M44372 47724
L44372 50096
" />
<path d="M37672 24746
L36954 24028
" />
<path d="M41172 24746
L37672 24746
" />
<path d="M39457 38931
L39772 39246
" />
<path d="M38172 27846
L38172 29246
" />
<path d="M37872 33446
L38872 34446
" />
<path d="M35872 25546
L38172 27846
" />
<path d="M38172 29246
L37872 29546
" />
<path d="M38872 34446
L38872 38346
" />
<path d="M38872 38346
L39457 38931
" />
<path d="M37872 29546
L37872 33446
" />
<path d="M39457 40931
L39772 41246
" />
<path d="M39072 39346
L39072 40546
" />
<path d="M38472 38746
L39072 39346
" />
<path d="M37557 33731
L38472 34646
" />
<path d="M37572 28246
L37572 29246
" />
<path d="M38472 34646
L38472 38746
" />
<path d="M35872 26546
L37572 28246
" />
<path d="M37572 29246
L37557 29260
" />
<path d="M39072 40546
L39457 40931
" />
<path d="M37557 29260
L37557 33731
" />
<path d="M36479 24546
L37579 25646
" />
<path d="M35872 24546
L36479 24546
" />
<path d="M37579 25646
L40172 28238
" />
<path d="M40172 28238
L40172 30646
" />
<path d="M40172 30646
L40872 31346
" />
<path d="M45457 37931
L45772 38246
" />
<path d="M45203 37677
L45457 37931
" />
<path d="M43258 31346
L44003 32090
" />
<path d="M40872 31346
L43258 31346
" />
<path d="M44003 32090
L44003 34877
" />
<path d="M45203 36077
L45203 37677
" />
<path d="M44003 34877
L45203 36077
" />
<path d="M39772 46246
L40087 46560
" />
<path d="M35872 29146
L35872 29702
" />
<path d="M35872 29702
L36742 30572
" />
<path d="M39072 46546
L39772 47246
" />
<path d="M39072 41246
L39072 46546
" />
<path d="M36742 30572
L36798 30572
" />
<path d="M36798 30572
L37172 30946
" />
<path d="M37172 30946
L37172 33846
" />
<path d="M37172 33846
L38072 34746
" />
<path d="M38072 34746
L38072 38946
" />
<path d="M38672 39546
L38672 40846
" />
<path d="M38072 38946
L38672 39546
" />
<path d="M38672 40846
L39072 41246
" />
<path d="M45772 34800
L45772 35246
" />
<path d="M44572 33600
L45772 34800
" />
<path d="M41472 27246
L42672 28446
" />
<path d="M42672 28446
L42672 29646
" />
<path d="M44572 31546
L44572 33600
" />
<path d="M42672 29646
L44572 31546
" />
<path d="M43472 28246
L43472 29346
" />
<path d="M42472 27246
L43472 28246
" />
<path d="M42228 52318
L41586 51677
" />
<path d="M41586 46834
L41423 46671
" />
<path d="M41586 51677
L41586 46834
" />
<path d="M41423 46671
L41326 46574
" />
<path d="M38472 30089
L39415 29146
" />
<path d="M38472 31846
L38472 30089
" />
</g> 
</svg>
