<?xml version="1.0" standalone="no"?>
 <!DOCTYPE svg PUBLIC "-//W3C//DTD SVG 1.1//EN" 
 "http://www.w3.org/Graphics/SVG/1.1/DTD/svg11.dtd"> 
<svg xmlns="http://www.w3.org/2000/svg" version="1.1" 
    width="29.7002cm" height="21.0007cm" viewBox="0 0 116930 82680 ">
<title>SVG Picture created as mozzi_theremin_circuit-F.SilkS.svg date 2019/09/26 12:33:11 </title>
  <desc>Picture generated by PCBNEW </desc>
<g style="fill:#000000; fill-opacity:1;stroke:#000000; stroke-opacity:1;
stroke-linecap:round; stroke-linejoin:round; "
 transform="translate(0 0) scale(1 1)">
</g>
<g style="fill:#000000; fill-opacity:0.0; 
stroke:#000000; stroke-width:-0.000393701; stroke-opacity:1; 
stroke-linecap:round; stroke-linejoin:round;">
</g>
<g style="fill:#000000; fill-opacity:0.0; 
stroke:#000000; stroke-width:118.11; stroke-opacity:1; 
stroke-linecap:round; stroke-linejoin:round;">
<path d="M46751 32663
L46751 32381
" />
<path d="M46920 32719
L46330 32522
L46920 32325
" />
<path d="M46892 31903
L46920 31960
L46920 32072
L46892 32128
L46836 32156
L46611 32156
L46555 32128
L46526 32072
L46526 31960
L46555 31903
L46611 31875
L46667 31875
L46723 32156
" />
<path d="M46526 31706
L46526 31482
" />
<path d="M46330 31622
L46836 31622
L46892 31594
L46920 31538
L46920 31482
" />
<path d="M46920 31285
L46330 31285
" />
<path d="M46920 31032
L46611 31032
L46555 31060
L46526 31116
L46526 31200
L46555 31257
L46583 31285
" />
<path d="M46892 30525
L46920 30582
L46920 30694
L46892 30750
L46836 30778
L46611 30778
L46555 30750
L46526 30694
L46526 30582
L46555 30525
L46611 30497
L46667 30497
L46723 30778
" />
<path d="M46920 30244
L46526 30244
" />
<path d="M46639 30244
L46583 30216
L46555 30188
L46526 30132
L46526 30075
" />
<path d="M46526 29879
L47117 29879
" />
<path d="M46555 29879
L46526 29822
L46526 29710
L46555 29654
L46583 29625
L46639 29597
L46808 29597
L46864 29625
L46892 29654
L46920 29710
L46920 29822
L46892 29879
" />
<path d="M46920 29344
L46330 29344
" />
<path d="M46920 29091
L46611 29091
L46555 29119
L46526 29176
L46526 29260
L46555 29316
L46583 29344
" />
<path d="M46920 28726
L46892 28782
L46864 28810
L46808 28838
L46639 28838
L46583 28810
L46555 28782
L46526 28726
L46526 28641
L46555 28585
L46583 28557
L46639 28529
L46808 28529
L46864 28557
L46892 28585
L46920 28641
L46920 28726
" />
<path d="M46526 28276
L46920 28276
" />
<path d="M46583 28276
L46555 28248
L46526 28191
L46526 28107
L46555 28051
L46611 28023
L46920 28023
" />
<path d="M46892 27516
L46920 27573
L46920 27685
L46892 27741
L46836 27769
L46611 27769
L46555 27741
L46526 27685
L46526 27573
L46555 27516
L46611 27488
L46667 27488
L46723 27769
" />
<path d="M46920 26785
L46330 26785
L46920 26448
L46330 26448
" />
<path d="M46920 25913
L46611 25913
L46555 25942
L46526 25998
L46526 26110
L46555 26167
" />
<path d="M46892 25913
L46920 25970
L46920 26110
L46892 26167
L46836 26195
L46780 26195
L46723 26167
L46695 26110
L46695 25970
L46667 25913
" />
<path d="M46526 25632
L46920 25632
" />
<path d="M46583 25632
L46555 25604
L46526 25548
L46526 25464
L46555 25407
L46611 25379
L46920 25379
" />
<path d="M46920 25014
L46892 25070
L46864 25098
L46808 25126
L46639 25126
L46583 25098
L46555 25070
L46526 25014
L46526 24929
L46555 24873
L46583 24845
L46639 24817
L46808 24817
L46864 24845
L46892 24873
L46920 24929
L46920 25014
" />
<path d="M36628 47792
L36656 47820
L36684 47904
L36684 47961
L36656 48045
L36600 48101
L36543 48129
L36431 48158
L36347 48158
L36234 48129
L36178 48101
L36122 48045
L36093 47961
L36093 47904
L36122 47820
L36150 47792
" />
<path d="M36684 47539
L36093 47539
" />
<path d="M36684 47286
L36375 47286
L36318 47314
L36290 47370
L36290 47455
L36318 47511
L36347 47539
" />
<path d="M36684 47005
L36290 47005
" />
<path d="M36093 47005
L36122 47033
L36150 47005
L36122 46976
L36093 47005
L36150 47005
" />
<path d="M36684 46273
L36093 46273
" />
<path d="M36684 46020
L36375 46020
L36318 46048
L36290 46105
L36290 46189
L36318 46245
L36347 46273
" />
<path d="M36684 45486
L36375 45486
L36318 45514
L36290 45570
L36290 45683
L36318 45739
" />
<path d="M36656 45486
L36684 45542
L36684 45683
L36656 45739
L36600 45767
L36543 45767
L36487 45739
L36459 45683
L36459 45542
L36431 45486
" />
<path d="M36290 44502
L36684 44502
" />
<path d="M36290 44755
L36600 44755
L36656 44727
L36684 44670
L36684 44586
L36656 44530
L36628 44502
" />
<path d="M36656 43967
L36684 44024
L36684 44136
L36656 44192
L36628 44221
L36571 44249
L36403 44249
L36347 44221
L36318 44192
L36290 44136
L36290 44024
L36318 43967
" />
<path d="M36656 43461
L36684 43517
L36684 43630
L36656 43686
L36628 43714
L36571 43742
L36403 43742
L36347 43714
L36318 43686
L36290 43630
L36290 43517
L36318 43461
" />
<path d="M36684 43208
L36290 43208
" />
<path d="M36093 43208
L36122 43236
L36150 43208
L36122 43180
L36093 43208
L36150 43208
" />
<path d="M36656 42955
L36684 42899
L36684 42786
L36656 42730
L36600 42702
L36571 42702
L36515 42730
L36487 42786
L36487 42871
L36459 42927
L36403 42955
L36375 42955
L36318 42927
L36290 42871
L36290 42786
L36318 42730
" />
<path d="M36684 42365
L36656 42421
L36628 42449
L36571 42477
L36403 42477
L36347 42449
L36318 42421
L36290 42365
L36290 42280
L36318 42224
L36347 42196
L36403 42168
L36571 42168
L36628 42196
L36656 42224
L36684 42280
L36684 42365
" />
<path d="M36684 41465
L36093 41465
" />
<path d="M36684 41099
L36656 41155
L36600 41183
L36093 41183
" />
<path d="M36628 40087
L36656 40115
L36684 40199
L36684 40255
L36656 40340
L36600 40396
L36543 40424
L36431 40452
L36347 40452
L36234 40424
L36178 40396
L36122 40340
L36093 40255
L36093 40199
L36122 40115
L36150 40087
" />
<path d="M36684 39749
L36656 39805
L36628 39834
L36571 39862
L36403 39862
L36347 39834
L36318 39805
L36290 39749
L36290 39665
L36318 39609
L36347 39580
L36403 39552
L36571 39552
L36628 39580
L36656 39609
L36684 39665
L36684 39749
" />
<path d="M36290 39299
L36684 39299
" />
<path d="M36347 39299
L36318 39271
L36290 39215
L36290 39131
L36318 39074
L36375 39046
L36684 39046
" />
<path d="M36290 38849
L36290 38624
" />
<path d="M36093 38765
L36600 38765
L36656 38737
L36684 38681
L36684 38624
" />
<path d="M36656 38203
L36684 38259
L36684 38371
L36656 38428
L36600 38456
L36375 38456
L36318 38428
L36290 38371
L36290 38259
L36318 38203
L36375 38174
L36431 38174
L36487 38456
" />
<path d="M36628 37837
L36656 37809
L36684 37837
L36656 37865
L36628 37837
L36684 37837
" />
<path d="M36122 37949
L36093 37893
L36093 37753
L36122 37696
L36178 37668
L36234 37668
L36290 37696
L36318 37724
L36347 37781
L36375 37809
L36431 37837
L36459 37837
" />
</g>
<g style="fill:#000000; fill-opacity:0.0; 
stroke:#000000; stroke-width:47.2441; stroke-opacity:1; 
stroke-linecap:round; stroke-linejoin:round;">
<path d="M40272 35746
L40272 34746
" />
<path d="M40272 34746
L39220 34746
" />
<path d="M39220 35746
L39220 50797
" />
<path d="M39220 33694
L39220 34746
" />
<path d="M45272 34746
L46323 34746
" />
<path d="M45272 34746
L45272 49746
" />
<path d="M45272 49746
L46323 49746
" />
<path d="M40272 35746
L39220 35746
" />
<path d="M40272 35746
L40272 49746
" />
<path d="M40272 49746
L39220 49746
" />
<path d="M39220 50797
L46323 50797
" />
<path d="M46323 50797
L46323 33694
" />
<path d="M46323 33694
L39220 33694
" />
<path d="M44302 28696
L44302 32995
" />
<path d="M42641 28696
L42641 32995
" />
<path d="M44302 28696
L42641 28696
" />
<path d="M44302 32995
L42641 32995
" />
<path d="M44397 28601
L44397 29146
" />
<path d="M44397 28601
L43852 28601
" />
<path d="M43791 27964
L43791 28696
" />
<path d="M43153 27964
L43153 28696
" />
<path d="M43791 27964
L43153 27964
" />
<path d="M43791 28696
L43153 28696
" />
<path d="M37964 31237
L37964 32454
" />
<circle cx="38972.1" cy="31846" r="984.252" /> 
<path d="M40149.3 31846.2 A1177.17 1177.17 0.0 0 0 37964.2 31237.8 " />
<path d="M37964.2 32454.2 A1177.17 1177.17 0.0 0 0 40149.3 31845.8 " />
<circle cx="42228.3" cy="52318.9" r="1169.29" /> 
<path d="M43397 52318
L43559 52318
" />
<path d="M35037 28311
L40250 28311
" />
<path d="M35037 29980
L40250 29980
" />
<path d="M35037 28311
L35037 29980
" />
<path d="M40250 28311
L40250 29980
" />
<path d="M42206 33080
L40537 33080
" />
<path d="M42206 27868
L40537 27868
" />
<path d="M40537 27868
L40537 33080
" />
<path d="M42206 27868
L42206 33080
" />
<path d="M37894 27378
L40257 27378
" />
<path d="M37894 23913
L40257 23913
" />
<path d="M37882.1 23922.6 A2096.62 2096.62 0.0 0 0 37895 27378.3 " />
<path d="M40270 27369.5 A2096.62 2096.62 0.0 0 0 40257.2 23913.7 " />
<circle cx="41472.1" cy="27246" r="539.37" /> 
<path d="M42011 27246
L42039 27246
" />
</g>
<g style="fill:#000000; fill-opacity:0.0; 
stroke:#000000; stroke-width:50; stroke-opacity:1; 
stroke-linecap:round; stroke-linejoin:round;">
<path d="M28285 17581
L28285 23880
" />
<path d="M28285 28211
L28285 34510
" />
<path d="M33718 34904
L33718 34510
" />
<path d="M33718 34510
L33718 28211
" />
<path d="M33718 28211
L33718 23880
" />
<path d="M33718 23880
L33718 17581
" />
<path d="M33718 17581
L33718 17187
" />
<path d="M33718 17187
L34191 17187
" />
<path d="M34191 17187
L34191 34904
" />
<path d="M34191 34904
L33718 34904
" />
<path d="M33718 17581
L28285 17581
" />
<path d="M33718 34510
L28285 34510
" />
<path d="M33718 23880
L28285 23880
" />
<path d="M33718 28211
L28285 28211
" />
</g>
<g style="fill:#000000; fill-opacity:0.0; 
stroke:#000000; stroke-width:59.0551; stroke-opacity:1; 
stroke-linecap:round; stroke-linejoin:round;">
<path d="M42490 33311
L42678 33311
" />
<path d="M42453 33424
L42584 33030
L42715 33424
" />
<path d="M43053 33424
L42828 33424
" />
<path d="M42940 33424
L42940 33030
L42903 33086
L42865 33124
L42828 33142
" />
<path d="M44668 31155
L44687 31099
L44705 31080
L44743 31061
L44799 31061
L44837 31080
L44855 31099
L44874 31136
L44874 31286
L44480 31286
L44480 31155
L44499 31117
L44518 31099
L44555 31080
L44593 31080
L44630 31099
L44649 31117
L44668 31155
L44668 31286
" />
<path d="M44480 30949
L44480 30724
" />
<path d="M44874 30836
L44480 30836
" />
<path d="M44874 30386
L44874 30611
" />
<path d="M44874 30499
L44480 30499
L44537 30536
L44574 30574
L44593 30611
" />
<path d="M38681 30465
L38681 30071
L38775 30071
L38831 30090
L38869 30127
L38887 30165
L38906 30240
L38906 30296
L38887 30371
L38869 30408
L38831 30446
L38775 30465
L38681 30465
" />
<path d="M39281 30465
L39056 30465
" />
<path d="M39168 30465
L39168 30071
L39131 30127
L39093 30165
L39056 30183
" />
<path d="M42534 50671
L42534 51008
L42515 51046
L42478 51065
L42459 51065
" />
<path d="M42534 50540
L42515 50559
L42534 50577
L42553 50559
L42534 50540
L42534 50577
" />
<path d="M42890 50934
L42890 50727
L42872 50690
L42834 50671
L42759 50671
L42722 50690
" />
<path d="M42890 50915
L42853 50934
L42759 50934
L42722 50915
L42703 50877
L42703 50840
L42722 50802
L42759 50784
L42853 50784
L42890 50765
" />
<path d="M43247 50915
L43209 50934
L43134 50934
L43097 50915
L43078 50896
L43059 50859
L43059 50746
L43078 50709
L43097 50690
L43134 50671
L43209 50671
L43247 50690
" />
<path d="M43415 50934
L43415 50540
" />
<path d="M43453 50784
L43565 50934
" />
<path d="M43565 50671
L43415 50821
" />
<path d="M43940 50934
L43715 50934
" />
<path d="M43828 50934
L43828 50540
L43790 50596
L43753 50634
L43715 50652
" />
<path d="M37578 28044
L37446 27857
" />
<path d="M37353 28044
L37353 27650
L37503 27650
L37540 27669
L37559 27688
L37578 27725
L37578 27782
L37559 27819
L37540 27838
L37503 27857
L37353 27857
" />
<path d="M37953 28044
L37728 28044
" />
<path d="M37840 28044
L37840 27650
L37803 27707
L37765 27744
L37728 27763
" />
<path d="M42829 30539
L42642 30671
" />
<path d="M42829 30764
L42436 30764
L42436 30614
L42454 30577
L42473 30558
L42511 30539
L42567 30539
L42604 30558
L42623 30577
L42642 30614
L42642 30764
" />
<path d="M42436 30408
L42436 30165
L42586 30296
L42586 30240
L42604 30202
L42623 30183
L42661 30165
L42754 30165
L42792 30183
L42811 30202
L42829 30240
L42829 30352
L42811 30390
L42792 30408
" />
<path d="M39010 23776
L38879 23589
" />
<path d="M38785 23776
L38785 23383
L38935 23383
L38972 23401
L38991 23420
L39010 23458
L39010 23514
L38991 23551
L38972 23570
L38935 23589
L38785 23589
" />
<path d="M39347 23514
L39347 23776
" />
<path d="M39254 23364
L39160 23645
L39404 23645
" />
<path d="M40941 26472
L40978 26491
L41053 26491
L41090 26472
L41109 26434
L41109 26416
L41090 26378
L41053 26359
L40997 26359
L40959 26341
L40941 26303
L40941 26284
L40959 26247
L40997 26228
L41053 26228
L41090 26247
" />
<path d="M41240 26228
L41315 26491
L41390 26303
L41465 26491
L41540 26228
" />
<path d="M41690 26491
L41690 26228
" />
<path d="M41690 26097
L41672 26116
L41690 26134
L41709 26116
L41690 26097
L41690 26134
" />
<path d="M41822 26228
L41972 26228
" />
<path d="M41878 26097
L41878 26434
L41897 26472
L41934 26491
L41972 26491
" />
<path d="M42272 26472
L42234 26491
L42159 26491
L42122 26472
L42103 26453
L42084 26416
L42084 26303
L42103 26266
L42122 26247
L42159 26228
L42234 26228
L42272 26247
" />
<path d="M42440 26491
L42440 26097
" />
<path d="M42609 26491
L42609 26284
L42590 26247
L42553 26228
L42497 26228
L42459 26247
L42440 26266
" />
<path d="M43003 26491
L42778 26491
" />
<path d="M42890 26491
L42890 26097
L42853 26153
L42815 26191
L42778 26209
" />
</g>
<g style="fill:#000000; fill-opacity:0.0; 
stroke:#000000; stroke-width:19.685; stroke-opacity:1; 
stroke-linecap:round; stroke-linejoin:round;">
<path d="M34350 18424
L34669 18424
L34707 18405
L34725 18387
L34744 18349
L34744 18274
L34725 18237
L34707 18218
L34669 18199
L34350 18199
" />
<path d="M34744 17805
L34744 18030
" />
<path d="M34744 17918
L34350 17918
L34406 17955
L34444 17993
L34463 18030
" />
<path d="M34723 34981
L34329 34981
" />
<path d="M34516 34981
L34516 34756
" />
<path d="M34723 34756
L34329 34756
" />
<path d="M34685 34343
L34704 34362
L34723 34418
L34723 34455
L34704 34512
L34667 34549
L34629 34568
L34554 34587
L34498 34587
L34423 34568
L34385 34549
L34347 34512
L34329 34455
L34329 34418
L34347 34362
L34366 34343
" />
<path d="M34573 34174
L34573 33873
" />
<path d="M34704 33704
L34723 33648
L34723 33554
L34704 33516
L34685 33498
L34648 33479
L34610 33479
L34573 33498
L34554 33516
L34535 33554
L34516 33629
L34498 33667
L34479 33685
L34441 33704
L34404 33704
L34366 33685
L34347 33667
L34329 33629
L34329 33535
L34347 33479
" />
<path d="M34723 33085
L34535 33216
" />
<path d="M34723 33310
L34329 33310
L34329 33160
L34347 33122
L34366 33103
L34404 33085
L34460 33085
L34498 33103
L34516 33122
L34535 33160
L34535 33310
" />
<path d="M34329 32840
L34329 32803
L34347 32765
L34366 32746
L34404 32728
L34479 32709
L34573 32709
L34648 32728
L34685 32746
L34704 32765
L34723 32803
L34723 32840
L34704 32878
L34685 32897
L34648 32915
L34573 32934
L34479 32934
L34404 32915
L34366 32897
L34347 32878
L34329 32840
" />
<path d="M34460 32371
L34723 32371
" />
<path d="M34310 32465
L34592 32559
L34592 32315
" />
</g>
<g style="fill:#000000; fill-opacity:0.0; 
stroke:#000000; stroke-width:59.0551; stroke-opacity:1; 
stroke-linecap:round; stroke-linejoin:round;">
<path d="M35892 20822
L35761 20634
" />
<path d="M35667 20822
L35667 20428
L35817 20428
L35854 20447
L35873 20465
L35892 20503
L35892 20559
L35873 20597
L35854 20615
L35817 20634
L35667 20634
" />
<path d="M36061 20615
L36192 20615
" />
<path d="M36248 20822
L36061 20822
L36061 20428
L36248 20428
" />
<path d="M36548 20615
L36417 20615
" />
<path d="M36417 20822
L36417 20428
L36604 20428
" />
<path d="M36811 20428
L36811 20522
" />
<path d="M36717 20484
L36811 20522
L36904 20484
" />
<path d="M36754 20597
L36811 20522
L36867 20597
" />
<path d="M37110 20428
L37110 20522
" />
<path d="M37017 20484
L37110 20522
L37204 20484
" />
<path d="M37054 20597
L37110 20522
L37167 20597
" />
<path d="M36286 51615
L36154 51427
" />
<path d="M36061 51615
L36061 51221
L36211 51221
L36248 51240
L36267 51258
L36286 51296
L36286 51352
L36267 51390
L36248 51408
L36211 51427
L36061 51427
" />
<path d="M36454 51408
L36586 51408
" />
<path d="M36642 51615
L36454 51615
L36454 51221
L36642 51221
" />
<path d="M36942 51408
L36811 51408
" />
<path d="M36811 51615
L36811 51221
L36998 51221
" />
<path d="M37204 51221
L37204 51315
" />
<path d="M37110 51277
L37204 51315
L37298 51277
" />
<path d="M37148 51390
L37204 51315
L37260 51390
" />
<path d="M37504 51221
L37504 51315
" />
<path d="M37410 51277
L37504 51315
L37598 51277
" />
<path d="M37448 51390
L37504 51315
L37560 51390
" />
<path d="M45931 51615
L45800 51427
" />
<path d="M45706 51615
L45706 51221
L45856 51221
L45894 51240
L45913 51258
L45931 51296
L45931 51352
L45913 51390
L45894 51408
L45856 51427
L45706 51427
" />
<path d="M46100 51408
L46231 51408
" />
<path d="M46287 51615
L46100 51615
L46100 51221
L46287 51221
" />
<path d="M46587 51408
L46456 51408
" />
<path d="M46456 51615
L46456 51221
L46644 51221
" />
<path d="M46850 51221
L46850 51315
" />
<path d="M46756 51277
L46850 51315
L46944 51277
" />
<path d="M46794 51390
L46850 51315
L46906 51390
" />
<path d="M47150 51221
L47150 51315
" />
<path d="M47056 51277
L47150 51315
L47244 51277
" />
<path d="M47094 51390
L47150 51315
L47206 51390
" />
<path d="M46128 20906
L45997 20718
" />
<path d="M45903 20906
L45903 20512
L46053 20512
L46091 20531
L46109 20550
L46128 20587
L46128 20643
L46109 20681
L46091 20700
L46053 20718
L45903 20718
" />
<path d="M46297 20700
L46428 20700
" />
<path d="M46484 20906
L46297 20906
L46297 20512
L46484 20512
" />
<path d="M46784 20700
L46653 20700
" />
<path d="M46653 20906
L46653 20512
L46841 20512
" />
<path d="M47047 20512
L47047 20606
" />
<path d="M46953 20568
L47047 20606
L47140 20568
" />
<path d="M46991 20681
L47047 20606
L47103 20681
" />
<path d="M47347 20512
L47347 20606
" />
<path d="M47253 20568
L47347 20606
L47440 20568
" />
<path d="M47290 20681
L47347 20606
L47403 20681
" />
</g> 
</svg>
