G04 #@! TF.GenerationSoftware,KiCad,Pcbnew,5.0.2-bee76a0~70~ubuntu18.04.1*
G04 #@! TF.CreationDate,2019-09-26T12:34:54+02:00*
G04 #@! TF.ProjectId,mozzi_theremin_circuit,6d6f7a7a-695f-4746-9865-72656d696e5f,rev?*
G04 #@! TF.SameCoordinates,Original*
G04 #@! TF.FileFunction,Copper,L1,Top*
G04 #@! TF.FilePolarity,Positive*
%FSLAX46Y46*%
G04 Gerber Fmt 4.6, Leading zero omitted, Abs format (unit mm)*
G04 Created by KiCad (PCBNEW 5.0.2-bee76a0~70~ubuntu18.04.1) date Thu 26 Sep 2019 12:34:54 PM CEST*
%MOMM*%
%LPD*%
G01*
G04 APERTURE LIST*
G04 #@! TA.AperFunction,ComponentPad*
%ADD10R,1.600000X1.600000*%
G04 #@! TD*
G04 #@! TA.AperFunction,ComponentPad*
%ADD11O,1.600000X1.600000*%
G04 #@! TD*
G04 #@! TA.AperFunction,ComponentPad*
%ADD12R,1.800000X1.800000*%
G04 #@! TD*
G04 #@! TA.AperFunction,ComponentPad*
%ADD13C,1.800000*%
G04 #@! TD*
G04 #@! TA.AperFunction,ComponentPad*
%ADD14C,2.800000*%
G04 #@! TD*
G04 #@! TA.AperFunction,ComponentPad*
%ADD15O,2.800000X2.800000*%
G04 #@! TD*
G04 #@! TA.AperFunction,ComponentPad*
%ADD16C,2.000000*%
G04 #@! TD*
G04 #@! TA.AperFunction,ComponentPad*
%ADD17C,1.600000*%
G04 #@! TD*
G04 #@! TA.AperFunction,ComponentPad*
%ADD18C,1.530000*%
G04 #@! TD*
G04 #@! TA.AperFunction,ComponentPad*
%ADD19C,5.700000*%
G04 #@! TD*
G04 #@! TA.AperFunction,Conductor*
%ADD20C,0.500000*%
G04 #@! TD*
G04 APERTURE END LIST*
D10*
G04 #@! TO.P,A1,1*
G04 #@! TO.N,Net-(A1-Pad1)*
X101021190Y-89524914D03*
D11*
G04 #@! TO.P,A1,17*
G04 #@! TO.N,Net-(A1-Pad17)*
X116261190Y-122544914D03*
G04 #@! TO.P,A1,2*
G04 #@! TO.N,Net-(A1-Pad2)*
X101021190Y-92064914D03*
G04 #@! TO.P,A1,18*
G04 #@! TO.N,Net-(A1-Pad18)*
X116261190Y-120004914D03*
G04 #@! TO.P,A1,3*
G04 #@! TO.N,Net-(A1-Pad3)*
X101021190Y-94604914D03*
G04 #@! TO.P,A1,19*
G04 #@! TO.N,Net-(A1-Pad19)*
X116261190Y-117464914D03*
G04 #@! TO.P,A1,4*
G04 #@! TO.N,Net-(A1-Pad4)*
X101021190Y-97144914D03*
G04 #@! TO.P,A1,20*
G04 #@! TO.N,Net-(A1-Pad20)*
X116261190Y-114924914D03*
G04 #@! TO.P,A1,5*
G04 #@! TO.N,Net-(A1-Pad5)*
X101021190Y-99684914D03*
G04 #@! TO.P,A1,21*
G04 #@! TO.N,Net-(A1-Pad21)*
X116261190Y-112384914D03*
G04 #@! TO.P,A1,6*
G04 #@! TO.N,Net-(A1-Pad6)*
X101021190Y-102224914D03*
G04 #@! TO.P,A1,22*
G04 #@! TO.N,Net-(A1-Pad22)*
X116261190Y-109844914D03*
G04 #@! TO.P,A1,7*
G04 #@! TO.N,Net-(A1-Pad7)*
X101021190Y-104764914D03*
G04 #@! TO.P,A1,23*
G04 #@! TO.N,Net-(A1-Pad23)*
X116261190Y-107304914D03*
G04 #@! TO.P,A1,8*
G04 #@! TO.N,Net-(A1-Pad8)*
X101021190Y-107304914D03*
G04 #@! TO.P,A1,24*
G04 #@! TO.N,Net-(A1-Pad24)*
X116261190Y-104764914D03*
G04 #@! TO.P,A1,9*
G04 #@! TO.N,Net-(A1-Pad9)*
X101021190Y-109844914D03*
G04 #@! TO.P,A1,25*
G04 #@! TO.N,Net-(A1-Pad25)*
X116261190Y-102224914D03*
G04 #@! TO.P,A1,10*
G04 #@! TO.N,Net-(A1-Pad10)*
X101021190Y-112384914D03*
G04 #@! TO.P,A1,26*
G04 #@! TO.N,Net-(A1-Pad26)*
X116261190Y-99684914D03*
G04 #@! TO.P,A1,11*
G04 #@! TO.N,Net-(A1-Pad11)*
X101021190Y-114924914D03*
G04 #@! TO.P,A1,27*
G04 #@! TO.N,Net-(A1-Pad27)*
X116261190Y-97144914D03*
G04 #@! TO.P,A1,12*
G04 #@! TO.N,Net-(A1-Pad12)*
X101021190Y-117464914D03*
G04 #@! TO.P,A1,28*
G04 #@! TO.N,Net-(A1-Pad28)*
X116261190Y-94604914D03*
G04 #@! TO.P,A1,13*
G04 #@! TO.N,Net-(A1-Pad13)*
X101021190Y-120004914D03*
G04 #@! TO.P,A1,29*
G04 #@! TO.N,Net-(A1-Pad29)*
X116261190Y-92064914D03*
G04 #@! TO.P,A1,14*
G04 #@! TO.N,Net-(A1-Pad14)*
X101021190Y-122544914D03*
G04 #@! TO.P,A1,30*
G04 #@! TO.N,Net-(A1-Pad30)*
X116261190Y-89524914D03*
G04 #@! TO.P,A1,15*
G04 #@! TO.N,Net-(A1-Pad15)*
X101021190Y-125084914D03*
G04 #@! TO.P,A1,16*
G04 #@! TO.N,Net-(A1-Pad16)*
X116261190Y-125084914D03*
G04 #@! TD*
D10*
G04 #@! TO.P,BT1,1*
G04 #@! TO.N,Net-(BT1-Pad1)*
X110419190Y-74538914D03*
D11*
G04 #@! TO.P,BT1,2*
G04 #@! TO.N,Net-(A1-Pad4)*
X110419190Y-82158914D03*
G04 #@! TD*
D12*
G04 #@! TO.P,D1,1*
G04 #@! TO.N,Net-(D1-Pad1)*
X97719190Y-80888914D03*
D13*
G04 #@! TO.P,D1,2*
G04 #@! TO.N,Net-(A1-Pad4)*
X100259190Y-80888914D03*
G04 #@! TD*
D14*
G04 #@! TO.P,jack1,1*
G04 #@! TO.N,Net-(C1-Pad1)*
X107260000Y-132890000D03*
D15*
G04 #@! TO.P,jack1,2*
G04 #@! TO.N,Net-(A1-Pad4)*
X112340000Y-132890000D03*
G04 #@! TD*
D16*
G04 #@! TO.P,R1,1*
G04 #@! TO.N,Net-(A1-Pad13)*
X91115190Y-74030914D03*
G04 #@! TO.P,R1,2*
G04 #@! TO.N,Net-(D1-Pad1)*
X100115190Y-74030914D03*
G04 #@! TD*
G04 #@! TO.P,R3,2*
G04 #@! TO.N,Net-(A1-Pad4)*
X105085190Y-81904914D03*
G04 #@! TO.P,R3,1*
G04 #@! TO.N,Net-(A1-Pad19)*
X105085190Y-72904914D03*
G04 #@! TD*
D17*
G04 #@! TO.P,R4,1*
G04 #@! TO.N,Net-(A1-Pad27)*
X95453190Y-65140914D03*
G04 #@! TO.P,R4,2*
G04 #@! TO.N,Net-(A1-Pad19)*
X103053190Y-65140914D03*
G04 #@! TD*
G04 #@! TO.P,switch1,1*
G04 #@! TO.N,Net-(A1-Pad30)*
X105339190Y-69204914D03*
D11*
G04 #@! TO.P,switch1,2*
G04 #@! TO.N,Net-(BT1-Pad1)*
X107879190Y-69204914D03*
G04 #@! TD*
D18*
G04 #@! TO.P,U1,2*
G04 #@! TO.N,Net-(A1-Pad5)*
X91115190Y-64886914D03*
G04 #@! TO.P,U1,3*
G04 #@! TO.N,Net-(A1-Pad7)*
X91115190Y-67426914D03*
G04 #@! TO.P,U1,4*
G04 #@! TO.N,Net-(A1-Pad4)*
X91115190Y-69966914D03*
G04 #@! TO.P,U1,1*
G04 #@! TO.N,Net-(A1-Pad27)*
X91115190Y-62346914D03*
G04 #@! TD*
D19*
G04 #@! TO.P,REF\002A\002A,1*
G04 #@! TO.N,N/C*
X118500000Y-56500000D03*
G04 #@! TD*
D20*
G04 #@! TO.N,*
X101830000Y-118280000D02*
X104920000Y-118280000D01*
G04 #@! TO.N,Net-(A1-Pad19)*
X103053190Y-70872914D02*
X105085190Y-72904914D01*
X118293190Y-115432914D02*
X116261190Y-117464914D01*
X118293190Y-88508914D02*
X118293190Y-115432914D01*
X114229190Y-84444914D02*
X118293190Y-88508914D01*
X114229190Y-84444914D02*
X114229190Y-79364914D01*
X114229190Y-79364914D02*
X112197190Y-77332914D01*
X112197190Y-77332914D02*
X112197190Y-69712914D01*
X109403190Y-66918914D02*
X103053190Y-66918914D01*
X103053190Y-65140914D02*
X103053190Y-66918914D01*
X112197190Y-69712914D02*
X109403190Y-66918914D01*
X103053190Y-66918914D02*
X103053190Y-70872914D01*
G04 #@! TO.N,Net-(A1-Pad4)*
X110165190Y-81904914D02*
X110419190Y-82158914D01*
X105085190Y-81904914D02*
X110165190Y-81904914D01*
X104069190Y-80888914D02*
X105085190Y-81904914D01*
X100259190Y-80888914D02*
X104069190Y-80888914D01*
X102152560Y-97144914D02*
X103307190Y-95990284D01*
X101021190Y-97144914D02*
X102152560Y-97144914D01*
X100259190Y-83936914D02*
X103561190Y-87238914D01*
X103561190Y-87238914D02*
X103561190Y-92572914D01*
X100259190Y-80888914D02*
X100259190Y-83936914D01*
X103561190Y-92572914D02*
X112705190Y-101716914D01*
X103307190Y-92826914D02*
X103561190Y-92572914D01*
X103307190Y-95990284D02*
X103307190Y-92826914D01*
X110940001Y-122985189D02*
X112705190Y-121220000D01*
X110940001Y-131490001D02*
X110940001Y-122985189D01*
X112340000Y-132890000D02*
X110940001Y-131490001D01*
X112705190Y-101716914D02*
X112705190Y-121220000D01*
X119093200Y-116156904D02*
X119093200Y-88177540D01*
X90483989Y-61031913D02*
X89800189Y-61715713D01*
X118293190Y-116956914D02*
X119093200Y-116156904D01*
X112997200Y-69381540D02*
X107740574Y-64124914D01*
X114608914Y-129148914D02*
X118293190Y-129148914D01*
X93864189Y-61031913D02*
X90483989Y-61031913D01*
X107740574Y-64124914D02*
X104577190Y-64124914D01*
X118293190Y-129148914D02*
X118293190Y-116956914D01*
X112705190Y-127245190D02*
X114608914Y-129148914D01*
X119093200Y-88177540D02*
X115029200Y-84113540D01*
X89800189Y-68651913D02*
X91115190Y-69966914D01*
X104577190Y-64124914D02*
X104577190Y-62854914D01*
X115029200Y-84113540D02*
X115029200Y-79033540D01*
X115029200Y-79033540D02*
X112997200Y-77001540D01*
X89800189Y-61715713D02*
X89800189Y-68651913D01*
X112997200Y-77001540D02*
X112997200Y-69381540D01*
X112705190Y-121220000D02*
X112705190Y-127245190D01*
X95687190Y-62854914D02*
X93864189Y-61031913D01*
X104577190Y-62854914D02*
X95687190Y-62854914D01*
G04 #@! TO.N,Net-(A1-Pad5)*
X100221191Y-98884915D02*
X101021190Y-99684914D01*
X96957190Y-70728914D02*
X96957190Y-74284914D01*
X96195190Y-84952914D02*
X98735190Y-87492914D01*
X91115190Y-64886914D02*
X96957190Y-70728914D01*
X96957190Y-74284914D02*
X96195190Y-75046914D01*
X98735190Y-87492914D02*
X98735190Y-97398914D01*
X98735190Y-97398914D02*
X100221191Y-98884915D01*
X96195190Y-75046914D02*
X96195190Y-84952914D01*
G04 #@! TO.N,Net-(A1-Pad7)*
X100221191Y-103964915D02*
X101021190Y-104764914D01*
X99243190Y-99938914D02*
X99243190Y-102986914D01*
X97719190Y-98414914D02*
X99243190Y-99938914D01*
X95395180Y-85676904D02*
X97719190Y-88000914D01*
X95433190Y-71744914D02*
X95433190Y-74284914D01*
X97719190Y-88000914D02*
X97719190Y-98414914D01*
X91115190Y-67426914D02*
X95433190Y-71744914D01*
X95433190Y-74284914D02*
X95395180Y-74322924D01*
X99243190Y-102986914D02*
X100221191Y-103964915D01*
X95395180Y-74322924D02*
X95395180Y-85676904D01*
G04 #@! TO.N,Net-(A1-Pad27)*
X92659190Y-62346914D02*
X95453190Y-65140914D01*
X91115190Y-62346914D02*
X92659190Y-62346914D01*
X95453190Y-65140914D02*
X102037190Y-71724914D01*
X102037190Y-71724914D02*
X102037190Y-77840914D01*
X102037190Y-77840914D02*
X103815190Y-79618914D01*
X115461191Y-96344915D02*
X116261190Y-97144914D01*
X114817191Y-95700915D02*
X115461191Y-96344915D01*
X109877192Y-79618914D02*
X111769191Y-81510913D01*
X103815190Y-79618914D02*
X109877192Y-79618914D01*
X111769191Y-81510913D02*
X111769191Y-88588915D01*
X114817191Y-91636915D02*
X114817191Y-95700915D01*
X111769191Y-88588915D02*
X114817191Y-91636915D01*
G04 #@! TO.N,Net-(A1-Pad12)*
X101021190Y-117464914D02*
X101821189Y-118264913D01*
G04 #@! TO.N,Net-(A1-Pad13)*
X91115190Y-74030914D02*
X91115190Y-75445127D01*
X91115190Y-75445127D02*
X93325170Y-77655107D01*
X99243190Y-118226914D02*
X101021190Y-120004914D01*
X99243190Y-104764914D02*
X99243190Y-118226914D01*
X93325170Y-77655107D02*
X93469383Y-77655107D01*
X93469383Y-77655107D02*
X94417190Y-78602914D01*
X94417190Y-78602914D02*
X94417190Y-85968914D01*
X94417190Y-85968914D02*
X96703190Y-88254914D01*
X96703190Y-88254914D02*
X96703190Y-98922914D01*
X98227190Y-100446914D02*
X98227190Y-103748914D01*
X96703190Y-98922914D02*
X98227190Y-100446914D01*
X98227190Y-103748914D02*
X99243190Y-104764914D01*
G04 #@! TO.N,Net-(A1-Pad30)*
X116261190Y-88393544D02*
X116261190Y-89524914D01*
X113213190Y-85345544D02*
X116261190Y-88393544D01*
X105339190Y-69204914D02*
X108387190Y-72252914D01*
X108387190Y-72252914D02*
X108387190Y-75300914D01*
X113213190Y-80126914D02*
X113213190Y-85345544D01*
X108387190Y-75300914D02*
X113213190Y-80126914D01*
G04 #@! TO.N,Net-(BT1-Pad1)*
X110419190Y-71744914D02*
X110419190Y-74538914D01*
X107879190Y-69204914D02*
X110419190Y-71744914D01*
G04 #@! TO.N,Net-(C1-Pad1)*
X107260000Y-132890000D02*
X105630000Y-131260000D01*
X105630000Y-118960000D02*
X105214923Y-118544923D01*
X105630000Y-131260000D02*
X105630000Y-118960000D01*
X105214923Y-118544923D02*
X104970000Y-118300000D01*
G04 #@! TO.N,Net-(D1-Pad1)*
X97719190Y-76426914D02*
X100115190Y-74030914D01*
X97719190Y-80888914D02*
X97719190Y-76426914D01*
G04 #@! TD*
M02*
