G04 #@! TF.GenerationSoftware,KiCad,Pcbnew,5.0.2-bee76a0~70~ubuntu18.04.1*
G04 #@! TF.CreationDate,2019-09-26T12:34:54+02:00*
G04 #@! TF.ProjectId,mozzi_theremin_circuit,6d6f7a7a-695f-4746-9865-72656d696e5f,rev?*
G04 #@! TF.SameCoordinates,Original*
G04 #@! TF.FileFunction,Legend,Top*
G04 #@! TF.FilePolarity,Positive*
%FSLAX46Y46*%
G04 Gerber Fmt 4.6, Leading zero omitted, Abs format (unit mm)*
G04 Created by KiCad (PCBNEW 5.0.2-bee76a0~70~ubuntu18.04.1) date Thu 26 Sep 2019 12:34:54 PM CEST*
%MOMM*%
%LPD*%
G01*
G04 APERTURE LIST*
%ADD10C,0.300000*%
%ADD11C,0.120000*%
%ADD12C,0.127000*%
%ADD13C,0.150000*%
%ADD14C,0.050000*%
G04 APERTURE END LIST*
D10*
X118750000Y-82964285D02*
X118750000Y-82250000D01*
X119178571Y-83107142D02*
X117678571Y-82607142D01*
X119178571Y-82107142D01*
X119107142Y-81035714D02*
X119178571Y-81178571D01*
X119178571Y-81464285D01*
X119107142Y-81607142D01*
X118964285Y-81678571D01*
X118392857Y-81678571D01*
X118250000Y-81607142D01*
X118178571Y-81464285D01*
X118178571Y-81178571D01*
X118250000Y-81035714D01*
X118392857Y-80964285D01*
X118535714Y-80964285D01*
X118678571Y-81678571D01*
X118178571Y-80535714D02*
X118178571Y-79964285D01*
X117678571Y-80321428D02*
X118964285Y-80321428D01*
X119107142Y-80250000D01*
X119178571Y-80107142D01*
X119178571Y-79964285D01*
X119178571Y-79464285D02*
X117678571Y-79464285D01*
X119178571Y-78821428D02*
X118392857Y-78821428D01*
X118250000Y-78892857D01*
X118178571Y-79035714D01*
X118178571Y-79250000D01*
X118250000Y-79392857D01*
X118321428Y-79464285D01*
X119107142Y-77535714D02*
X119178571Y-77678571D01*
X119178571Y-77964285D01*
X119107142Y-78107142D01*
X118964285Y-78178571D01*
X118392857Y-78178571D01*
X118250000Y-78107142D01*
X118178571Y-77964285D01*
X118178571Y-77678571D01*
X118250000Y-77535714D01*
X118392857Y-77464285D01*
X118535714Y-77464285D01*
X118678571Y-78178571D01*
X119178571Y-76821428D02*
X118178571Y-76821428D01*
X118464285Y-76821428D02*
X118321428Y-76750000D01*
X118250000Y-76678571D01*
X118178571Y-76535714D01*
X118178571Y-76392857D01*
X118178571Y-75892857D02*
X119678571Y-75892857D01*
X118250000Y-75892857D02*
X118178571Y-75750000D01*
X118178571Y-75464285D01*
X118250000Y-75321428D01*
X118321428Y-75250000D01*
X118464285Y-75178571D01*
X118892857Y-75178571D01*
X119035714Y-75250000D01*
X119107142Y-75321428D01*
X119178571Y-75464285D01*
X119178571Y-75750000D01*
X119107142Y-75892857D01*
X119178571Y-74535714D02*
X117678571Y-74535714D01*
X119178571Y-73892857D02*
X118392857Y-73892857D01*
X118250000Y-73964285D01*
X118178571Y-74107142D01*
X118178571Y-74321428D01*
X118250000Y-74464285D01*
X118321428Y-74535714D01*
X119178571Y-72964285D02*
X119107142Y-73107142D01*
X119035714Y-73178571D01*
X118892857Y-73250000D01*
X118464285Y-73250000D01*
X118321428Y-73178571D01*
X118250000Y-73107142D01*
X118178571Y-72964285D01*
X118178571Y-72750000D01*
X118250000Y-72607142D01*
X118321428Y-72535714D01*
X118464285Y-72464285D01*
X118892857Y-72464285D01*
X119035714Y-72535714D01*
X119107142Y-72607142D01*
X119178571Y-72750000D01*
X119178571Y-72964285D01*
X118178571Y-71821428D02*
X119178571Y-71821428D01*
X118321428Y-71821428D02*
X118250000Y-71750000D01*
X118178571Y-71607142D01*
X118178571Y-71392857D01*
X118250000Y-71250000D01*
X118392857Y-71178571D01*
X119178571Y-71178571D01*
X119107142Y-69892857D02*
X119178571Y-70035714D01*
X119178571Y-70321428D01*
X119107142Y-70464285D01*
X118964285Y-70535714D01*
X118392857Y-70535714D01*
X118250000Y-70464285D01*
X118178571Y-70321428D01*
X118178571Y-70035714D01*
X118250000Y-69892857D01*
X118392857Y-69821428D01*
X118535714Y-69821428D01*
X118678571Y-70535714D01*
X119178571Y-68035714D02*
X117678571Y-68035714D01*
X119178571Y-67178571D01*
X117678571Y-67178571D01*
X119178571Y-65821428D02*
X118392857Y-65821428D01*
X118250000Y-65892857D01*
X118178571Y-66035714D01*
X118178571Y-66321428D01*
X118250000Y-66464285D01*
X119107142Y-65821428D02*
X119178571Y-65964285D01*
X119178571Y-66321428D01*
X119107142Y-66464285D01*
X118964285Y-66535714D01*
X118821428Y-66535714D01*
X118678571Y-66464285D01*
X118607142Y-66321428D01*
X118607142Y-65964285D01*
X118535714Y-65821428D01*
X118178571Y-65107142D02*
X119178571Y-65107142D01*
X118321428Y-65107142D02*
X118250000Y-65035714D01*
X118178571Y-64892857D01*
X118178571Y-64678571D01*
X118250000Y-64535714D01*
X118392857Y-64464285D01*
X119178571Y-64464285D01*
X119178571Y-63535714D02*
X119107142Y-63678571D01*
X119035714Y-63750000D01*
X118892857Y-63821428D01*
X118464285Y-63821428D01*
X118321428Y-63750000D01*
X118250000Y-63678571D01*
X118178571Y-63535714D01*
X118178571Y-63321428D01*
X118250000Y-63178571D01*
X118321428Y-63107142D01*
X118464285Y-63035714D01*
X118892857Y-63035714D01*
X119035714Y-63107142D01*
X119107142Y-63178571D01*
X119178571Y-63321428D01*
X119178571Y-63535714D01*
X93035714Y-121392857D02*
X93107142Y-121464285D01*
X93178571Y-121678571D01*
X93178571Y-121821428D01*
X93107142Y-122035714D01*
X92964285Y-122178571D01*
X92821428Y-122250000D01*
X92535714Y-122321428D01*
X92321428Y-122321428D01*
X92035714Y-122250000D01*
X91892857Y-122178571D01*
X91750000Y-122035714D01*
X91678571Y-121821428D01*
X91678571Y-121678571D01*
X91750000Y-121464285D01*
X91821428Y-121392857D01*
X93178571Y-120750000D02*
X91678571Y-120750000D01*
X93178571Y-120107142D02*
X92392857Y-120107142D01*
X92250000Y-120178571D01*
X92178571Y-120321428D01*
X92178571Y-120535714D01*
X92250000Y-120678571D01*
X92321428Y-120750000D01*
X93178571Y-119392857D02*
X92178571Y-119392857D01*
X91678571Y-119392857D02*
X91750000Y-119464285D01*
X91821428Y-119392857D01*
X91750000Y-119321428D01*
X91678571Y-119392857D01*
X91821428Y-119392857D01*
X93178571Y-117535714D02*
X91678571Y-117535714D01*
X93178571Y-116892857D02*
X92392857Y-116892857D01*
X92250000Y-116964285D01*
X92178571Y-117107142D01*
X92178571Y-117321428D01*
X92250000Y-117464285D01*
X92321428Y-117535714D01*
X93178571Y-115535714D02*
X92392857Y-115535714D01*
X92250000Y-115607142D01*
X92178571Y-115750000D01*
X92178571Y-116035714D01*
X92250000Y-116178571D01*
X93107142Y-115535714D02*
X93178571Y-115678571D01*
X93178571Y-116035714D01*
X93107142Y-116178571D01*
X92964285Y-116250000D01*
X92821428Y-116250000D01*
X92678571Y-116178571D01*
X92607142Y-116035714D01*
X92607142Y-115678571D01*
X92535714Y-115535714D01*
X92178571Y-113035714D02*
X93178571Y-113035714D01*
X92178571Y-113678571D02*
X92964285Y-113678571D01*
X93107142Y-113607142D01*
X93178571Y-113464285D01*
X93178571Y-113250000D01*
X93107142Y-113107142D01*
X93035714Y-113035714D01*
X93107142Y-111678571D02*
X93178571Y-111821428D01*
X93178571Y-112107142D01*
X93107142Y-112250000D01*
X93035714Y-112321428D01*
X92892857Y-112392857D01*
X92464285Y-112392857D01*
X92321428Y-112321428D01*
X92250000Y-112250000D01*
X92178571Y-112107142D01*
X92178571Y-111821428D01*
X92250000Y-111678571D01*
X93107142Y-110392857D02*
X93178571Y-110535714D01*
X93178571Y-110821428D01*
X93107142Y-110964285D01*
X93035714Y-111035714D01*
X92892857Y-111107142D01*
X92464285Y-111107142D01*
X92321428Y-111035714D01*
X92250000Y-110964285D01*
X92178571Y-110821428D01*
X92178571Y-110535714D01*
X92250000Y-110392857D01*
X93178571Y-109750000D02*
X92178571Y-109750000D01*
X91678571Y-109750000D02*
X91750000Y-109821428D01*
X91821428Y-109750000D01*
X91750000Y-109678571D01*
X91678571Y-109750000D01*
X91821428Y-109750000D01*
X93107142Y-109107142D02*
X93178571Y-108964285D01*
X93178571Y-108678571D01*
X93107142Y-108535714D01*
X92964285Y-108464285D01*
X92892857Y-108464285D01*
X92750000Y-108535714D01*
X92678571Y-108678571D01*
X92678571Y-108892857D01*
X92607142Y-109035714D01*
X92464285Y-109107142D01*
X92392857Y-109107142D01*
X92250000Y-109035714D01*
X92178571Y-108892857D01*
X92178571Y-108678571D01*
X92250000Y-108535714D01*
X93178571Y-107607142D02*
X93107142Y-107750000D01*
X93035714Y-107821428D01*
X92892857Y-107892857D01*
X92464285Y-107892857D01*
X92321428Y-107821428D01*
X92250000Y-107750000D01*
X92178571Y-107607142D01*
X92178571Y-107392857D01*
X92250000Y-107250000D01*
X92321428Y-107178571D01*
X92464285Y-107107142D01*
X92892857Y-107107142D01*
X93035714Y-107178571D01*
X93107142Y-107250000D01*
X93178571Y-107392857D01*
X93178571Y-107607142D01*
X93178571Y-105321428D02*
X91678571Y-105321428D01*
X93178571Y-104392857D02*
X93107142Y-104535714D01*
X92964285Y-104607142D01*
X91678571Y-104607142D01*
X93035714Y-101821428D02*
X93107142Y-101892857D01*
X93178571Y-102107142D01*
X93178571Y-102250000D01*
X93107142Y-102464285D01*
X92964285Y-102607142D01*
X92821428Y-102678571D01*
X92535714Y-102750000D01*
X92321428Y-102750000D01*
X92035714Y-102678571D01*
X91892857Y-102607142D01*
X91750000Y-102464285D01*
X91678571Y-102250000D01*
X91678571Y-102107142D01*
X91750000Y-101892857D01*
X91821428Y-101821428D01*
X93178571Y-100964285D02*
X93107142Y-101107142D01*
X93035714Y-101178571D01*
X92892857Y-101250000D01*
X92464285Y-101250000D01*
X92321428Y-101178571D01*
X92250000Y-101107142D01*
X92178571Y-100964285D01*
X92178571Y-100750000D01*
X92250000Y-100607142D01*
X92321428Y-100535714D01*
X92464285Y-100464285D01*
X92892857Y-100464285D01*
X93035714Y-100535714D01*
X93107142Y-100607142D01*
X93178571Y-100750000D01*
X93178571Y-100964285D01*
X92178571Y-99821428D02*
X93178571Y-99821428D01*
X92321428Y-99821428D02*
X92250000Y-99750000D01*
X92178571Y-99607142D01*
X92178571Y-99392857D01*
X92250000Y-99250000D01*
X92392857Y-99178571D01*
X93178571Y-99178571D01*
X92178571Y-98678571D02*
X92178571Y-98107142D01*
X91678571Y-98464285D02*
X92964285Y-98464285D01*
X93107142Y-98392857D01*
X93178571Y-98250000D01*
X93178571Y-98107142D01*
X93107142Y-97035714D02*
X93178571Y-97178571D01*
X93178571Y-97464285D01*
X93107142Y-97607142D01*
X92964285Y-97678571D01*
X92392857Y-97678571D01*
X92250000Y-97607142D01*
X92178571Y-97464285D01*
X92178571Y-97178571D01*
X92250000Y-97035714D01*
X92392857Y-96964285D01*
X92535714Y-96964285D01*
X92678571Y-97678571D01*
X93035714Y-96107142D02*
X93107142Y-96035714D01*
X93178571Y-96107142D01*
X93107142Y-96178571D01*
X93035714Y-96107142D01*
X93178571Y-96107142D01*
X91750000Y-96392857D02*
X91678571Y-96250000D01*
X91678571Y-95892857D01*
X91750000Y-95750000D01*
X91892857Y-95678571D01*
X92035714Y-95678571D01*
X92178571Y-95750000D01*
X92250000Y-95821428D01*
X92321428Y-95964285D01*
X92392857Y-96035714D01*
X92535714Y-96107142D01*
X92607142Y-96107142D01*
D11*
G04 #@! TO.C,A1*
X102291190Y-90794914D02*
X102291190Y-88254914D01*
X102291190Y-88254914D02*
X99621190Y-88254914D01*
X99621190Y-90794914D02*
X99621190Y-129024914D01*
X99621190Y-85584914D02*
X99621190Y-88254914D01*
X114991190Y-88254914D02*
X117661190Y-88254914D01*
X114991190Y-88254914D02*
X114991190Y-126354914D01*
X114991190Y-126354914D02*
X117661190Y-126354914D01*
X102291190Y-90794914D02*
X99621190Y-90794914D01*
X102291190Y-90794914D02*
X102291190Y-126354914D01*
X102291190Y-126354914D02*
X99621190Y-126354914D01*
X99621190Y-129024914D02*
X117661190Y-129024914D01*
X117661190Y-129024914D02*
X117661190Y-85584914D01*
X117661190Y-85584914D02*
X99621190Y-85584914D01*
G04 #@! TO.C,BT1*
X112529190Y-72888914D02*
X112529190Y-83808914D01*
X108309190Y-72888914D02*
X108309190Y-83808914D01*
X112529190Y-72888914D02*
X108309190Y-72888914D01*
X112529190Y-83808914D02*
X108309190Y-83808914D01*
X112769190Y-72648914D02*
X112769190Y-74031914D01*
X112769190Y-72648914D02*
X111386190Y-72648914D01*
X111229190Y-71028914D02*
X111229190Y-72888914D01*
X109609190Y-71028914D02*
X109609190Y-72888914D01*
X111229190Y-71028914D02*
X109609190Y-71028914D01*
X111229190Y-72888914D02*
X109609190Y-72888914D01*
G04 #@! TO.C,D1*
X96429190Y-79343914D02*
X96429190Y-82433914D01*
X101489190Y-80888914D02*
G75*
G03X101489190Y-80888914I-2500000J0D01*
G01*
X101979190Y-80889376D02*
G75*
G03X96429190Y-79344084I-2990000J462D01*
G01*
X101979190Y-80888452D02*
G75*
G02X96429190Y-82433744I-2990000J-462D01*
G01*
G04 #@! TO.C,jack1*
X110230000Y-132890000D02*
G75*
G03X110230000Y-132890000I-2970000J0D01*
G01*
X110230000Y-132890000D02*
X110640000Y-132890000D01*
G04 #@! TO.C,R1*
X88995190Y-71910914D02*
X102235190Y-71910914D01*
X88995190Y-76150914D02*
X102235190Y-76150914D01*
X88995190Y-71910914D02*
X88995190Y-76150914D01*
X102235190Y-71910914D02*
X102235190Y-76150914D01*
G04 #@! TO.C,R3*
X107205190Y-84024914D02*
X102965190Y-84024914D01*
X107205190Y-70784914D02*
X102965190Y-70784914D01*
X102965190Y-70784914D02*
X102965190Y-84024914D01*
X107205190Y-70784914D02*
X107205190Y-84024914D01*
G04 #@! TO.C,R4*
X96253190Y-69540914D02*
X102253190Y-69540914D01*
X96253190Y-60740914D02*
X102253190Y-60740914D01*
X96220540Y-60763354D02*
G75*
G03X96253190Y-69540914I3032650J-4377560D01*
G01*
X102285840Y-69518474D02*
G75*
G03X102253190Y-60740914I-3032650J4377560D01*
G01*
G04 #@! TO.C,switch1*
X106709190Y-69204914D02*
G75*
G03X106709190Y-69204914I-1370000J0D01*
G01*
X106709190Y-69204914D02*
X106779190Y-69204914D01*
D12*
G04 #@! TO.C,U1*
X71845190Y-44656914D02*
X71845190Y-60656914D01*
X71845190Y-71656914D02*
X71845190Y-87656914D01*
X85645190Y-88656914D02*
X85645190Y-87656914D01*
X85645190Y-87656914D02*
X85645190Y-71656914D01*
X85645190Y-71656914D02*
X85645190Y-60656914D01*
X85645190Y-60656914D02*
X85645190Y-44656914D01*
X85645190Y-44656914D02*
X85645190Y-43656914D01*
X85645190Y-43656914D02*
X86845190Y-43656914D01*
X86845190Y-43656914D02*
X86845190Y-88656914D01*
X86845190Y-88656914D02*
X85645190Y-88656914D01*
X85645190Y-44656914D02*
X71845190Y-44656914D01*
X85645190Y-87656914D02*
X71845190Y-87656914D01*
X85645190Y-60656914D02*
X71845190Y-60656914D01*
X85645190Y-71656914D02*
X71845190Y-71656914D01*
G04 #@! TO.C,*
D13*
G04 #@! TO.C,A1*
X107926904Y-84611580D02*
X108403094Y-84611580D01*
X107831666Y-84897294D02*
X108164999Y-83897294D01*
X108498332Y-84897294D01*
X109355475Y-84897294D02*
X108784047Y-84897294D01*
X109069761Y-84897294D02*
X109069761Y-83897294D01*
X108974523Y-84040152D01*
X108879285Y-84135390D01*
X108784047Y-84183009D01*
G04 #@! TO.C,BT1*
X113457761Y-79134628D02*
X113505380Y-78991771D01*
X113552999Y-78944152D01*
X113648237Y-78896533D01*
X113791094Y-78896533D01*
X113886332Y-78944152D01*
X113933951Y-78991771D01*
X113981570Y-79087009D01*
X113981570Y-79467961D01*
X112981570Y-79467961D01*
X112981570Y-79134628D01*
X113029190Y-79039390D01*
X113076809Y-78991771D01*
X113172047Y-78944152D01*
X113267285Y-78944152D01*
X113362523Y-78991771D01*
X113410142Y-79039390D01*
X113457761Y-79134628D01*
X113457761Y-79467961D01*
X112981570Y-78610818D02*
X112981570Y-78039390D01*
X113981570Y-78325104D02*
X112981570Y-78325104D01*
X113981570Y-77182247D02*
X113981570Y-77753675D01*
X113981570Y-77467961D02*
X112981570Y-77467961D01*
X113124428Y-77563199D01*
X113219666Y-77658437D01*
X113267285Y-77753675D01*
G04 #@! TO.C,D1*
X98251094Y-77381294D02*
X98251094Y-76381294D01*
X98489190Y-76381294D01*
X98632047Y-76428914D01*
X98727285Y-76524152D01*
X98774904Y-76619390D01*
X98822523Y-76809866D01*
X98822523Y-76952723D01*
X98774904Y-77143199D01*
X98727285Y-77238437D01*
X98632047Y-77333675D01*
X98489190Y-77381294D01*
X98251094Y-77381294D01*
X99774904Y-77381294D02*
X99203475Y-77381294D01*
X99489190Y-77381294D02*
X99489190Y-76381294D01*
X99393951Y-76524152D01*
X99298713Y-76619390D01*
X99203475Y-76667009D01*
G04 #@! TO.C,jack1*
X108038095Y-128705714D02*
X108038095Y-129562857D01*
X107990476Y-129658095D01*
X107895238Y-129705714D01*
X107847619Y-129705714D01*
X108038095Y-128372380D02*
X107990476Y-128420000D01*
X108038095Y-128467619D01*
X108085714Y-128420000D01*
X108038095Y-128372380D01*
X108038095Y-128467619D01*
X108942857Y-129372380D02*
X108942857Y-128848571D01*
X108895238Y-128753333D01*
X108800000Y-128705714D01*
X108609523Y-128705714D01*
X108514285Y-128753333D01*
X108942857Y-129324761D02*
X108847619Y-129372380D01*
X108609523Y-129372380D01*
X108514285Y-129324761D01*
X108466666Y-129229523D01*
X108466666Y-129134285D01*
X108514285Y-129039047D01*
X108609523Y-128991428D01*
X108847619Y-128991428D01*
X108942857Y-128943809D01*
X109847619Y-129324761D02*
X109752380Y-129372380D01*
X109561904Y-129372380D01*
X109466666Y-129324761D01*
X109419047Y-129277142D01*
X109371428Y-129181904D01*
X109371428Y-128896190D01*
X109419047Y-128800952D01*
X109466666Y-128753333D01*
X109561904Y-128705714D01*
X109752380Y-128705714D01*
X109847619Y-128753333D01*
X110276190Y-129372380D02*
X110276190Y-128372380D01*
X110371428Y-128991428D02*
X110657142Y-129372380D01*
X110657142Y-128705714D02*
X110276190Y-129086666D01*
X111609523Y-129372380D02*
X111038095Y-129372380D01*
X111323809Y-129372380D02*
X111323809Y-128372380D01*
X111228571Y-128515238D01*
X111133333Y-128610476D01*
X111038095Y-128658095D01*
G04 #@! TO.C,R1*
X95448523Y-71233294D02*
X95115190Y-70757104D01*
X94877094Y-71233294D02*
X94877094Y-70233294D01*
X95258047Y-70233294D01*
X95353285Y-70280914D01*
X95400904Y-70328533D01*
X95448523Y-70423771D01*
X95448523Y-70566628D01*
X95400904Y-70661866D01*
X95353285Y-70709485D01*
X95258047Y-70757104D01*
X94877094Y-70757104D01*
X96400904Y-71233294D02*
X95829475Y-71233294D01*
X96115190Y-71233294D02*
X96115190Y-70233294D01*
X96019951Y-70376152D01*
X95924713Y-70471390D01*
X95829475Y-70519009D01*
G04 #@! TO.C,R3*
X108787570Y-77571580D02*
X108311380Y-77904914D01*
X108787570Y-78143009D02*
X107787570Y-78143009D01*
X107787570Y-77762056D01*
X107835190Y-77666818D01*
X107882809Y-77619199D01*
X107978047Y-77571580D01*
X108120904Y-77571580D01*
X108216142Y-77619199D01*
X108263761Y-77666818D01*
X108311380Y-77762056D01*
X108311380Y-78143009D01*
X107787570Y-77238247D02*
X107787570Y-76619199D01*
X108168523Y-76952533D01*
X108168523Y-76809675D01*
X108216142Y-76714437D01*
X108263761Y-76666818D01*
X108358999Y-76619199D01*
X108597094Y-76619199D01*
X108692332Y-76666818D01*
X108739951Y-76714437D01*
X108787570Y-76809675D01*
X108787570Y-77095390D01*
X108739951Y-77190628D01*
X108692332Y-77238247D01*
G04 #@! TO.C,R4*
X99086523Y-60393294D02*
X98753190Y-59917104D01*
X98515094Y-60393294D02*
X98515094Y-59393294D01*
X98896047Y-59393294D01*
X98991285Y-59440914D01*
X99038904Y-59488533D01*
X99086523Y-59583771D01*
X99086523Y-59726628D01*
X99038904Y-59821866D01*
X98991285Y-59869485D01*
X98896047Y-59917104D01*
X98515094Y-59917104D01*
X99943666Y-59726628D02*
X99943666Y-60393294D01*
X99705570Y-59345675D02*
X99467475Y-60059961D01*
X100086523Y-60059961D01*
G04 #@! TO.C,switch1*
X103990142Y-67239675D02*
X104085380Y-67287294D01*
X104275856Y-67287294D01*
X104371094Y-67239675D01*
X104418713Y-67144437D01*
X104418713Y-67096818D01*
X104371094Y-67001580D01*
X104275856Y-66953961D01*
X104132999Y-66953961D01*
X104037761Y-66906342D01*
X103990142Y-66811104D01*
X103990142Y-66763485D01*
X104037761Y-66668247D01*
X104132999Y-66620628D01*
X104275856Y-66620628D01*
X104371094Y-66668247D01*
X104752047Y-66620628D02*
X104942523Y-67287294D01*
X105132999Y-66811104D01*
X105323475Y-67287294D01*
X105513951Y-66620628D01*
X105894904Y-67287294D02*
X105894904Y-66620628D01*
X105894904Y-66287294D02*
X105847285Y-66334914D01*
X105894904Y-66382533D01*
X105942523Y-66334914D01*
X105894904Y-66287294D01*
X105894904Y-66382533D01*
X106228237Y-66620628D02*
X106609190Y-66620628D01*
X106371094Y-66287294D02*
X106371094Y-67144437D01*
X106418713Y-67239675D01*
X106513951Y-67287294D01*
X106609190Y-67287294D01*
X107371094Y-67239675D02*
X107275856Y-67287294D01*
X107085380Y-67287294D01*
X106990142Y-67239675D01*
X106942523Y-67192056D01*
X106894904Y-67096818D01*
X106894904Y-66811104D01*
X106942523Y-66715866D01*
X106990142Y-66668247D01*
X107085380Y-66620628D01*
X107275856Y-66620628D01*
X107371094Y-66668247D01*
X107799666Y-67287294D02*
X107799666Y-66287294D01*
X108228237Y-67287294D02*
X108228237Y-66763485D01*
X108180618Y-66668247D01*
X108085380Y-66620628D01*
X107942523Y-66620628D01*
X107847285Y-66668247D01*
X107799666Y-66715866D01*
X109228237Y-67287294D02*
X108656809Y-67287294D01*
X108942523Y-67287294D02*
X108942523Y-66287294D01*
X108847285Y-66430152D01*
X108752047Y-66525390D01*
X108656809Y-66573009D01*
G04 #@! TO.C,U1*
D14*
X87250576Y-46798814D02*
X88060520Y-46798814D01*
X88155808Y-46751171D01*
X88203452Y-46703527D01*
X88251096Y-46608239D01*
X88251096Y-46417664D01*
X88203452Y-46322376D01*
X88155808Y-46274733D01*
X88060520Y-46227089D01*
X87250576Y-46227089D01*
X88251096Y-45226569D02*
X88251096Y-45798294D01*
X88251096Y-45512432D02*
X87250576Y-45512432D01*
X87393507Y-45607719D01*
X87488795Y-45703007D01*
X87536439Y-45798294D01*
X88197635Y-88853580D02*
X87195945Y-88853580D01*
X87672940Y-88853580D02*
X87672940Y-88281186D01*
X88197635Y-88281186D02*
X87195945Y-88281186D01*
X88102236Y-87231796D02*
X88149935Y-87279496D01*
X88197635Y-87422594D01*
X88197635Y-87517994D01*
X88149935Y-87661092D01*
X88054536Y-87756491D01*
X87959137Y-87804191D01*
X87768339Y-87851890D01*
X87625241Y-87851890D01*
X87434443Y-87804191D01*
X87339044Y-87756491D01*
X87243645Y-87661092D01*
X87195945Y-87517994D01*
X87195945Y-87422594D01*
X87243645Y-87279496D01*
X87291344Y-87231796D01*
X87816039Y-86802501D02*
X87816039Y-86039308D01*
X88149935Y-85610013D02*
X88197635Y-85466914D01*
X88197635Y-85228416D01*
X88149935Y-85133017D01*
X88102236Y-85085318D01*
X88006837Y-85037618D01*
X87911438Y-85037618D01*
X87816039Y-85085318D01*
X87768339Y-85133017D01*
X87720640Y-85228416D01*
X87672940Y-85419214D01*
X87625241Y-85514614D01*
X87577541Y-85562313D01*
X87482142Y-85610013D01*
X87386743Y-85610013D01*
X87291344Y-85562313D01*
X87243645Y-85514614D01*
X87195945Y-85419214D01*
X87195945Y-85180717D01*
X87243645Y-85037618D01*
X88197635Y-84035928D02*
X87720640Y-84369825D01*
X88197635Y-84608323D02*
X87195945Y-84608323D01*
X87195945Y-84226726D01*
X87243645Y-84131327D01*
X87291344Y-84083628D01*
X87386743Y-84035928D01*
X87529842Y-84035928D01*
X87625241Y-84083628D01*
X87672940Y-84131327D01*
X87720640Y-84226726D01*
X87720640Y-84608323D01*
X87195945Y-83415834D02*
X87195945Y-83320435D01*
X87243645Y-83225036D01*
X87291344Y-83177337D01*
X87386743Y-83129637D01*
X87577541Y-83081938D01*
X87816039Y-83081938D01*
X88006837Y-83129637D01*
X88102236Y-83177337D01*
X88149935Y-83225036D01*
X88197635Y-83320435D01*
X88197635Y-83415834D01*
X88149935Y-83511234D01*
X88102236Y-83558933D01*
X88006837Y-83606633D01*
X87816039Y-83654332D01*
X87577541Y-83654332D01*
X87386743Y-83606633D01*
X87291344Y-83558933D01*
X87243645Y-83511234D01*
X87195945Y-83415834D01*
X87529842Y-82223346D02*
X88197635Y-82223346D01*
X87148245Y-82461844D02*
X87863738Y-82700342D01*
X87863738Y-82080248D01*
G04 #@! TO.C,REF\002A\002A*
D13*
X91166666Y-52888380D02*
X90833333Y-52412190D01*
X90595238Y-52888380D02*
X90595238Y-51888380D01*
X90976190Y-51888380D01*
X91071428Y-51936000D01*
X91119047Y-51983619D01*
X91166666Y-52078857D01*
X91166666Y-52221714D01*
X91119047Y-52316952D01*
X91071428Y-52364571D01*
X90976190Y-52412190D01*
X90595238Y-52412190D01*
X91595238Y-52364571D02*
X91928571Y-52364571D01*
X92071428Y-52888380D02*
X91595238Y-52888380D01*
X91595238Y-51888380D01*
X92071428Y-51888380D01*
X92833333Y-52364571D02*
X92500000Y-52364571D01*
X92500000Y-52888380D02*
X92500000Y-51888380D01*
X92976190Y-51888380D01*
X93500000Y-51888380D02*
X93500000Y-52126476D01*
X93261904Y-52031238D02*
X93500000Y-52126476D01*
X93738095Y-52031238D01*
X93357142Y-52316952D02*
X93500000Y-52126476D01*
X93642857Y-52316952D01*
X94261904Y-51888380D02*
X94261904Y-52126476D01*
X94023809Y-52031238D02*
X94261904Y-52126476D01*
X94500000Y-52031238D01*
X94119047Y-52316952D02*
X94261904Y-52126476D01*
X94404761Y-52316952D01*
X92166666Y-131102380D02*
X91833333Y-130626190D01*
X91595238Y-131102380D02*
X91595238Y-130102380D01*
X91976190Y-130102380D01*
X92071428Y-130150000D01*
X92119047Y-130197619D01*
X92166666Y-130292857D01*
X92166666Y-130435714D01*
X92119047Y-130530952D01*
X92071428Y-130578571D01*
X91976190Y-130626190D01*
X91595238Y-130626190D01*
X92595238Y-130578571D02*
X92928571Y-130578571D01*
X93071428Y-131102380D02*
X92595238Y-131102380D01*
X92595238Y-130102380D01*
X93071428Y-130102380D01*
X93833333Y-130578571D02*
X93500000Y-130578571D01*
X93500000Y-131102380D02*
X93500000Y-130102380D01*
X93976190Y-130102380D01*
X94500000Y-130102380D02*
X94500000Y-130340476D01*
X94261904Y-130245238D02*
X94500000Y-130340476D01*
X94738095Y-130245238D01*
X94357142Y-130530952D02*
X94500000Y-130340476D01*
X94642857Y-130530952D01*
X95261904Y-130102380D02*
X95261904Y-130340476D01*
X95023809Y-130245238D02*
X95261904Y-130340476D01*
X95500000Y-130245238D01*
X95119047Y-130530952D02*
X95261904Y-130340476D01*
X95404761Y-130530952D01*
X116666666Y-131102380D02*
X116333333Y-130626190D01*
X116095238Y-131102380D02*
X116095238Y-130102380D01*
X116476190Y-130102380D01*
X116571428Y-130150000D01*
X116619047Y-130197619D01*
X116666666Y-130292857D01*
X116666666Y-130435714D01*
X116619047Y-130530952D01*
X116571428Y-130578571D01*
X116476190Y-130626190D01*
X116095238Y-130626190D01*
X117095238Y-130578571D02*
X117428571Y-130578571D01*
X117571428Y-131102380D02*
X117095238Y-131102380D01*
X117095238Y-130102380D01*
X117571428Y-130102380D01*
X118333333Y-130578571D02*
X118000000Y-130578571D01*
X118000000Y-131102380D02*
X118000000Y-130102380D01*
X118476190Y-130102380D01*
X119000000Y-130102380D02*
X119000000Y-130340476D01*
X118761904Y-130245238D02*
X119000000Y-130340476D01*
X119238095Y-130245238D01*
X118857142Y-130530952D02*
X119000000Y-130340476D01*
X119142857Y-130530952D01*
X119761904Y-130102380D02*
X119761904Y-130340476D01*
X119523809Y-130245238D02*
X119761904Y-130340476D01*
X120000000Y-130245238D01*
X119619047Y-130530952D02*
X119761904Y-130340476D01*
X119904761Y-130530952D01*
X117166666Y-53102380D02*
X116833333Y-52626190D01*
X116595238Y-53102380D02*
X116595238Y-52102380D01*
X116976190Y-52102380D01*
X117071428Y-52150000D01*
X117119047Y-52197619D01*
X117166666Y-52292857D01*
X117166666Y-52435714D01*
X117119047Y-52530952D01*
X117071428Y-52578571D01*
X116976190Y-52626190D01*
X116595238Y-52626190D01*
X117595238Y-52578571D02*
X117928571Y-52578571D01*
X118071428Y-53102380D02*
X117595238Y-53102380D01*
X117595238Y-52102380D01*
X118071428Y-52102380D01*
X118833333Y-52578571D02*
X118500000Y-52578571D01*
X118500000Y-53102380D02*
X118500000Y-52102380D01*
X118976190Y-52102380D01*
X119500000Y-52102380D02*
X119500000Y-52340476D01*
X119261904Y-52245238D02*
X119500000Y-52340476D01*
X119738095Y-52245238D01*
X119357142Y-52530952D02*
X119500000Y-52340476D01*
X119642857Y-52530952D01*
X120261904Y-52102380D02*
X120261904Y-52340476D01*
X120023809Y-52245238D02*
X120261904Y-52340476D01*
X120500000Y-52245238D01*
X120119047Y-52530952D02*
X120261904Y-52340476D01*
X120404761Y-52530952D01*
G04 #@! TD*
M02*
