M48
;DRILL file {KiCad 5.0.2-bee76a0~70~ubuntu18.04.1} date Thu 26 Sep 2019 12:32:56 PM CEST
;FORMAT={-:-/ absolute / inch / decimal}
FMAT,2
INCH,TZ
T1C0.0315
T2C0.0354
T3C0.0394
T4C0.0402
T5C0.0551
T6C0.1260
T7C0.1260
%
G90
G05
T1
X4.1472Y-2.7246
X4.2472Y-2.7246
X3.9772Y-3.5246
X3.9772Y-3.6246
X3.9772Y-3.7246
X3.9772Y-3.8246
X3.9772Y-3.9246
X3.9772Y-4.0246
X3.9772Y-4.1246
X3.9772Y-4.2246
X3.9772Y-4.3246
X3.9772Y-4.4246
X3.9772Y-4.5246
X3.9772Y-4.6246
X3.9772Y-4.7246
X3.9772Y-4.8246
X3.9772Y-4.9246
X4.5772Y-3.5246
X4.5772Y-3.6246
X4.5772Y-3.7246
X4.5772Y-3.8246
X4.5772Y-3.9246
X4.5772Y-4.0246
X4.5772Y-4.1246
X4.5772Y-4.2246
X4.5772Y-4.3246
X4.5772Y-4.4246
X4.5772Y-4.5246
X4.5772Y-4.6246
X4.5772Y-4.7246
X4.5772Y-4.8246
X4.5772Y-4.9246
X3.758Y-2.5646
X4.0572Y-2.5646
X4.3472Y-2.9346
X4.3472Y-3.2346
T2
X3.8472Y-3.1846
X3.9472Y-3.1846
T3
X4.1372Y-2.8703
X4.1372Y-3.2246
X3.5872Y-2.9146
X3.9415Y-2.9146
T4
X3.5872Y-2.4546
X3.5872Y-2.5546
X3.5872Y-2.6546
X3.5872Y-2.7546
T5
X4.2228Y-5.2319
X4.4228Y-5.2319
T6
X4.6654Y-2.2244
T7
X3.6417Y-2.2244
X3.6811Y-5.2953
X4.6457Y-5.2953
T0
M30
